<?xml version="1.0" encoding="utf-8"?>
<!-- Generator: Adobe Illustrator 16.0.0, SVG Export Plug-In . SVG Version: 6.00 Build 0)  -->
<!DOCTYPE svg PUBLIC "-//W3C//DTD SVG 1.1//EN" "http://www.w3.org/Graphics/SVG/1.1/DTD/svg11.dtd">
<svg version="1.1" id="Layer_1" xmlns="http://www.w3.org/2000/svg" xmlns:xlink="http://www.w3.org/1999/xlink" x="0px" y="0px"
	 width="145px" height="40.995px" viewBox="0 0 145 40.995" enable-background="new 0 0 145 40.995" xml:space="preserve">
<g>
	<defs>
		<rect id="SVGID_1_" width="145" height="40.995"/>
	</defs>
	<clipPath id="SVGID_2_">
		<use xlink:href="#SVGID_1_"  overflow="visible"/>
	</clipPath>
	<path clip-path="url(#SVGID_2_)" fill="#FFFFFF" d="M0,38.369v-4.427c2.273,2.012,5.089,3.047,8.482,3.047
		c6.152,0,9.286-3.22,9.286-9.716V0.087H21.9v27.933c0,8.738-4.74,12.936-12.732,12.936C5.43,40.956,2.273,40.095,0,38.369
		 M48.708,0c5.713,0,10.408,1.98,14.198,5.883c3.791,3.903,5.713,8.768,5.713,14.595c0,5.827-1.923,10.748-5.713,14.651
		c-3.79,3.903-8.485,5.826-14.198,5.826c-5.714,0-10.466-1.923-14.256-5.826s-5.657-8.824-5.657-14.651
		c0-5.828,1.867-10.692,5.657-14.595C38.243,1.98,42.995,0,48.708,0 M48.708,37.053c4.412,0,8.146-1.583,11.144-4.75
		c2.998-3.169,4.525-7.129,4.525-11.824c0-4.696-1.527-8.656-4.525-11.823c-2.998-3.168-6.731-4.751-11.144-4.751
		c-4.413,0-8.146,1.583-11.145,4.751c-2.998,3.167-4.525,7.127-4.525,11.823c0,4.695,1.527,8.655,4.525,11.824
		C40.563,35.47,44.296,37.053,48.708,37.053 M140.17,0.087l-12.879,17.79l-7.603-10.504l5.255-7.286h-4.83l-2.851,3.945
		l-2.851-3.945h-4.944l5.305,7.358l-7.538,10.449L94.354,0.087H89.41l15.544,21.722v19.186h4.339V21.752l7.943-10.965l7.965,11.022
		v19.186h4.132V21.752L145,0.087H140.17z M87.626,40.956c-7.992,0-12.836-4.197-12.836-12.936V0.087h4.339v27.186
		c0,6.496,3.134,9.716,9.286,9.716c3.393,0,6.209-1.035,8.481-3.047v4.427C94.417,40.095,91.363,40.956,87.626,40.956"/>
</g>
</svg>
