<?xml version="1.0" encoding="utf-8"?>
<!-- Generator: Adobe Illustrator 16.0.0, SVG Export Plug-In . SVG Version: 6.00 Build 0)  -->
<!DOCTYPE svg PUBLIC "-//W3C//DTD SVG 1.1//EN" "http://www.w3.org/Graphics/SVG/1.1/DTD/svg11.dtd">
<svg version="1.1" id="Layer_1" xmlns="http://www.w3.org/2000/svg" xmlns:xlink="http://www.w3.org/1999/xlink" x="0px" y="0px"
	 width="150px" height="42.409px" viewBox="0 0 150 42.409" enable-background="new 0 0 150 42.409" xml:space="preserve">
<g>
	<defs>
		<rect id="SVGID_1_" width="150" height="42.409"/>
	</defs>
	<clipPath id="SVGID_2_">
		<use xlink:href="#SVGID_1_"  overflow="visible"/>
	</clipPath>
	<path clip-path="url(#SVGID_2_)" fill="#E01D51" d="M0,39.692v-4.579c2.351,2.081,5.265,3.151,8.774,3.151
		c6.364,0,9.606-3.331,9.606-10.051V0.09h4.274v28.896c0,9.041-4.904,13.383-13.172,13.383C5.618,42.369,2.351,41.477,0,39.692
		 M50.388,0c5.91,0,10.768,2.049,14.688,6.086s5.91,9.07,5.91,15.099c0,6.027-1.989,11.118-5.91,15.155
		c-3.921,4.038-8.778,6.028-14.688,6.028c-5.911,0-10.826-1.99-14.747-6.028c-3.921-4.037-5.852-9.128-5.852-15.155
		c0-6.028,1.931-11.061,5.852-15.099S44.477,0,50.388,0 M50.388,38.331c4.564,0,8.427-1.638,11.528-4.915
		c3.102-3.277,4.682-7.374,4.682-12.23c0-4.858-1.58-8.954-4.682-12.231c-3.101-3.277-6.964-4.915-11.528-4.915
		s-8.427,1.638-11.528,4.915s-4.682,7.374-4.682,12.231c0,4.856,1.58,8.953,4.682,12.23S45.823,38.331,50.388,38.331 M145.004,0.09
		l-13.323,18.403l-7.865-10.867l5.436-7.537h-4.996l-2.949,4.081l-2.949-4.081h-5.114l5.487,7.611l-7.798,10.81L97.608,0.09h-5.114
		l16.079,22.471v19.848h4.488V22.502l8.218-11.344l8.239,11.402v19.848h4.274V22.502L150,0.09H145.004z M90.647,42.369
		c-8.268,0-13.278-4.342-13.278-13.383V0.09h4.488v28.123c0,6.72,3.242,10.051,9.606,10.051c3.51,0,6.423-1.07,8.774-3.151v4.579
		C97.673,41.477,94.514,42.369,90.647,42.369"/>
</g>
</svg>
