<?xml version="1.0" encoding="utf-8"?>
<!-- Generator: Adobe Illustrator 16.0.0, SVG Export Plug-In . SVG Version: 6.00 Build 0)  -->
<!DOCTYPE svg PUBLIC "-//W3C//DTD SVG 1.1//EN" "http://www.w3.org/Graphics/SVG/1.1/DTD/svg11.dtd">
<svg version="1.1" id="Layer_1" xmlns="http://www.w3.org/2000/svg" xmlns:xlink="http://www.w3.org/1999/xlink" x="0px" y="0px"
	 width="183px" height="166.481px" viewBox="0 0 183 166.481" enable-background="new 0 0 183 166.481" xml:space="preserve">
<g>
	<defs>
		<rect id="SVGID_1_" y="0" width="183" height="166.481"/>
	</defs>
	<clipPath id="SVGID_2_">
		<use xlink:href="#SVGID_1_"  overflow="visible"/>
	</clipPath>
	<path clip-path="url(#SVGID_2_)" fill="#DB0B45" d="M174.833,127.831c-9.185-15.912-22.335-22.321-22.335-22.321
		c-11.745-6.793-18.623-14.261-22.847-22.106c-0.017-0.028-0.026-0.06-0.044-0.09c-10.485-19.591-4.402-41.524-15.7-61.093
		C105.975,8.483,92.386-0.541,91.393,0.025C82.495,5.198,74.789,12.675,69.275,22.22c-5.556,9.614-8.17,20.112-8.167,30.477
		c0.004,0,0.004,0.017,0.01,0.021l-0.005,0.001c-0.008,11.1-2.99,21.492-8.179,30.453c-0.012,0.015-0.022,0.036-0.032,0.055
		c-5.35,9.214-13.042,16.914-22.263,22.254c-0.003,0-0.018-0.006-0.021-0.009c0,0-0.005,0-0.005-0.004h-0.003
		c0.008,0.013,0.003,0.013-0.007,0.004c-8.985,5.173-16.771,12.688-22.323,22.312c-7.412,12.842-8.792,27.865-8.133,30.274
		c0.047,0.17,0.103,0.29,0.168,0.327c8.918,5.116,19.252,8.051,30.279,8.055c11.106-0.004,21.509-2.984,30.479-8.171v-0.003h0.005
		c0-0.007,0.006-0.007,0.007-0.01h0.004c9.567-5.52,20.002-8.13,30.304-8.143c10.735-0.006,21.323,2.793,30.624,8.152h0.011
		c0.001,0,0.005,0.003,0.001,0.016c-0.001,0.003-0.001,0.013-0.001,0.016c0,0,12.257,8.184,30.491,8.184
		c15.387,0,29.556-6.806,30.398-8.269c0.026-0.044,0.082-0.101,0.082-0.139C182.965,147.798,180.346,137.38,174.833,127.831"/>
	<path clip-path="url(#SVGID_2_)" fill="#B0003A" d="M91.392,0.025C82.496,5.198,74.789,12.675,69.276,22.22
		c-5.556,9.613-8.171,20.112-8.167,30.477c0.005,0,0.005,0.017,0.01,0.021l-0.005,0.001c-0.009,11.1-2.99,21.492-8.18,30.453
		l38.458,22.203V0.025z"/>
	<path clip-path="url(#SVGID_2_)" fill="#FF3052" d="M91.396,105.375l38.212-22.062c-10.486-19.591-4.403-41.523-15.7-61.093
		C105.975,8.483,92.387-0.541,91.392,0.025v105.35H91.396z"/>
	<path clip-path="url(#SVGID_2_)" fill="#FF3052" d="M91.392,105.375h0.004H91.392z"/>
	<path clip-path="url(#SVGID_2_)" fill="#FF3052" d="M0.146,158.059c0.047,0.17,0.103,0.29,0.167,0.327
		c8.919,5.116,19.253,8.051,30.281,8.055c11.105-0.004,21.508-2.986,30.479-8.171v-0.003h0.005c0-0.007,0.005-0.007,0.007-0.01
		h0.005c9.567-5.52,20-8.13,30.302-8.143v-44.739L0.146,158.059z"/>
	<path clip-path="url(#SVGID_2_)" fill="#DB0B45" d="M174.833,127.831c-9.185-15.912-22.335-22.321-22.335-22.321
		c-11.745-6.793-18.623-14.261-22.847-22.106c-0.017-0.028-0.026-0.06-0.044-0.09l-38.211,22.062l91.521,52.838
		c0.026-0.044,0.082-0.101,0.082-0.139C182.965,147.798,180.346,137.38,174.833,127.831"/>
	<path clip-path="url(#SVGID_2_)" fill="#B0003A" d="M91.392,105.375v44.739c10.737-0.006,21.324,2.793,30.625,8.152h0.011
		c0.001,0,0.005,0.003,0.001,0.017c-0.001,0.002-0.001,0.012-0.001,0.015c0,0,12.257,8.184,30.49,8.184
		c15.388,0,29.556-6.806,30.398-8.269l-91.521-52.838H91.392z"/>
	<path clip-path="url(#SVGID_2_)" fill="#DB0B45" d="M91.392,105.375L52.934,83.172c-0.011,0.014-0.021,0.036-0.032,0.055
		c-5.35,9.214-13.042,16.914-22.263,22.254c-0.003,0-0.018-0.006-0.021-0.009c0,0-0.006,0-0.006-0.004h-0.003
		c0.009,0.013,0.003,0.013-0.006,0.004c-8.984,5.173-16.771,12.688-22.324,22.313c-7.411,12.841-8.792,27.864-8.133,30.273
		L91.392,105.375z"/>
</g>
</svg>
