<?xml version="1.0" encoding="utf-8"?>
<!-- Generator: Adobe Illustrator 16.0.0, SVG Export Plug-In . SVG Version: 6.00 Build 0)  -->
<!DOCTYPE svg PUBLIC "-//W3C//DTD SVG 1.1//EN" "http://www.w3.org/Graphics/SVG/1.1/DTD/svg11.dtd">
<svg version="1.1" id="Capa_1" xmlns="http://www.w3.org/2000/svg" xmlns:xlink="http://www.w3.org/1999/xlink" x="0px" y="0px"
	 width="49px" height="47.802px" viewBox="194.773 195.373 49 47.802" enable-background="new 194.773 195.373 49 47.802"
	 xml:space="preserve">
<g>
	<path fill="#FFFFFF" d="M240.486,207.575c-2.19-3.754-5.162-6.726-8.916-8.917c-3.754-2.19-7.853-3.286-12.297-3.286
		s-8.544,1.096-12.298,3.286c-3.754,2.191-6.726,5.163-8.917,8.917c-2.19,3.754-3.286,7.853-3.286,12.297
		c0,5.339,1.558,10.14,4.673,14.403s7.141,7.215,12.074,8.853c0.574,0.106,1,0.031,1.276-0.224c0.277-0.255,0.415-0.574,0.415-0.956
		c0-0.064-0.005-0.639-0.016-1.723c-0.011-1.085-0.016-2.031-0.016-2.839l-0.733,0.127c-0.468,0.085-1.058,0.122-1.771,0.111
		c-0.712-0.01-1.452-0.084-2.217-0.224c-0.766-0.137-1.478-0.456-2.137-0.956s-1.127-1.153-1.403-1.961l-0.319-0.734
		c-0.212-0.489-0.547-1.032-1.004-1.627c-0.458-0.596-0.92-0.999-1.388-1.212l-0.223-0.16c-0.149-0.106-0.287-0.234-0.415-0.383
		c-0.127-0.148-0.223-0.298-0.287-0.446c-0.064-0.149-0.011-0.271,0.159-0.368c0.17-0.096,0.479-0.143,0.925-0.143l0.638,0.096
		c0.425,0.085,0.952,0.34,1.579,0.766c0.627,0.425,1.143,0.978,1.547,1.658c0.489,0.872,1.079,1.537,1.77,1.994
		s1.388,0.686,2.089,0.686s1.308-0.054,1.818-0.159c0.51-0.106,0.989-0.267,1.436-0.479c0.191-1.426,0.712-2.521,1.563-3.286
		c-1.212-0.128-2.302-0.319-3.27-0.574c-0.968-0.256-1.967-0.67-2.999-1.245c-1.032-0.574-1.888-1.286-2.568-2.137
		c-0.68-0.851-1.239-1.968-1.674-3.35c-0.436-1.383-0.654-2.978-0.654-4.785c0-2.574,0.84-4.764,2.52-6.572
		c-0.787-1.935-0.712-4.104,0.223-6.507c0.617-0.192,1.532-0.048,2.744,0.431c1.212,0.479,2.1,0.888,2.664,1.228
		c0.564,0.34,1.016,0.628,1.356,0.861c1.979-0.553,4.02-0.829,6.125-0.829c2.105,0,4.147,0.276,6.126,0.829l1.212-0.765
		c0.829-0.511,1.808-0.979,2.935-1.404s1.988-0.542,2.584-0.351c0.957,2.404,1.042,4.573,0.255,6.508
		c1.68,1.808,2.521,3.999,2.521,6.572c0,1.807-0.219,3.408-0.653,4.8c-0.437,1.394-0.999,2.51-1.69,3.35
		c-0.691,0.841-1.553,1.548-2.584,2.122c-1.032,0.574-2.032,0.988-2.999,1.244c-0.968,0.255-2.058,0.447-3.27,0.574
		c1.105,0.957,1.658,2.467,1.658,4.53v6.73c0,0.382,0.133,0.701,0.398,0.956c0.267,0.255,0.686,0.33,1.261,0.224
		c4.934-1.638,8.959-4.589,12.074-8.853s4.673-9.064,4.673-14.403C243.771,215.428,242.676,211.329,240.486,207.575z"/>
</g>
</svg>
